<svg version="1.1" xmlns="http://www.w3.org/2000/svg" viewBox="0 0 1449 694.1376050420167">
  <!-- svg-source:excalidraw -->
  <defs>
    <style>
      @font-face {
        font-family: "Virgil";
        src: url("https://excalidraw.com/FG_Virgil.woff2");
      }
      @font-face {
        font-family: "Cascadia";
        src: url("https://excalidraw.com/Cascadia.woff2");
      }
    </style>
  </defs>
  <g transform="translate(355.5 10) rotate(0 299.3449999999998 31.443802521008365)"><text x="0" y="44" font-family="Virgil" font-size="50.14934894085421px" fill="#000000" text-anchor="start" style="white-space: pre;" direction="ltr">Meditattion Architecture</text></g><g transform="translate(619.5 181.13760504201673) rotate(0 127.5 50)"><path d="M-0.5992259185971691 -1.02711660395544 C86.8064893717414 -1.2989906485812128, 171.59934709963338 0.1975789971991117, 253.6317607521056 1.5328648858757685 M0.5822353518293237 0.49166815329482766 C94.47375766228524 -0.4936559096415385, 189.268335775754 -0.24180923853412714, 255.39713686630296 0.5508733063875696 M256.4621145222337 1.730102738365531 C256.8024398228155 25.442202989012003, 253.4620769759641 53.718716310337186, 254.8918926808984 101.55159964226186 M255.49953402113178 -0.9932659519836307 C254.60610367916533 35.509787312708795, 254.02152483724066 73.63616687897593, 255.4739774269984 99.36437863577157 M254.5654403578936 100.37311587806064 C179.03060296115788 99.56829548903754, 106.79291106594037 98.8590390281742, 0.6065825396893545 100.48657334483582 M255.6895656780349 100.23084441860011 C156.0135619307959 98.37060019456115, 56.83286255224356 98.37583340837028, -0.03713703703721984 100.16748517636051 M-1.0822855737060308 100.99307163618505 C0.6229860233142972 70.88477335125208, 0.3361166762188077 36.66791450418532, -0.33968316577374935 -0.8460950646549463 M-0.4763175742700696 99.67437240947038 C-0.2520710825920105 78.8829891262576, -0.28804877400398254 59.478176773525774, 0.7240074081346393 0.5615980671718717" stroke="#000000" stroke-width="1" fill="none"></path></g><g transform="translate(638.5 198.87898435236139) rotate(0 106 33)"><text x="0" y="46" font-family="Virgil" font-size="52.4137931034483px" fill="#000000" text-anchor="start" style="white-space: pre;" direction="ltr">React.js</text></g><g transform="translate(328.5 335.13760504201673) rotate(0 102.5 52.5)"><path d="M1.3618305955088883 1.6573158095502107 C48.997482587057576 1.6805803300258535, 100.58784661603607 -0.8573034826090913, 206.74096733694918 -0.6189581259132176 M0.26371137592669575 0.5591873575312272 C54.78206561088544 2.4639126425666715, 108.42609009849158 1.1192950875766183, 205.48383273159737 -0.5283730625658855 M204.86284109018743 -0.7977355625480413 C206.31732122744432 25.130184827838093, 205.3558757170569 47.32752393465489, 204.69463004730642 104.4870135281235 M204.08198741544038 0.6145307226106524 C204.22748869122006 39.982765479478985, 204.63766195834614 79.51412718184292, 204.133643691428 105.11462892126292 M204.69313726995594 104.35283804356567 C159.1647461693918 103.45527156306365, 114.15239736504651 101.81079304416039, -1.751839035326168 105.11552577054732 M205.3765571506035 104.81717678133313 C161.77315234837306 105.03139781316277, 117.69557825533296 105.96650745383616, 0.2296419668912515 105.17890380760137 M1.389680227264762 106.25425029732287 C-0.7707804820965976 78.24998443340883, -0.3194719336461276 54.45178279373795, -0.25511238910257816 1.4698656294494867 M-0.7232517255470157 104.91595612000674 C-0.28839168571867047 74.75708837015554, 1.5690605578478425 42.944391999393694, 0.8714133547618985 -0.005952288396656513" stroke="#000000" stroke-width="1" fill="none"></path></g><g transform="translate(377.44000000000005 342.6990085507887) rotate(0 53 23.5)"><text x="0" y="33" font-family="Virgil" font-size="37.22883314285934px" fill="#000000" text-anchor="start" style="white-space: pre;" direction="ltr">Redux</text></g><g transform="translate(596.5 517.1376050420167) rotate(0 156.5 66.5)"><path d="M1.1480029140972794 -0.4600568102304161 C84.17866632377677 -1.8990971624247144, 166.86016914953902 -1.4671718583729336, 312.35798472066443 -0.8479200053016366 M0.579205524719444 0.4833109322773308 C91.9205998893371 0.4550704085013921, 183.57103590768094 -0.4104670278979725, 313.27115401335016 0.6573432282550187 M314.67535389401013 -0.9921822343021631 C310.30586863846514 52.403787608724066, 310.12115497679446 104.18967101071026, 314.5193452332168 133.313752612099 M313.1328592700883 -0.7501735640689731 C313.72977100494313 47.00860077841205, 313.44723512413907 94.28215039707716, 312.52417374681676 132.39093259442592 M313.84040960363234 132.0597721405603 C227.15785130343698 130.63139110893175, 144.10340025330876 129.62645131228774, 1.2231998222479523 133.07933653090168 M313.03071153528936 132.44876955452287 C195.39356102490316 134.58057031769073, 76.29572651687597 134.39409234775255, 0.41356073361865586 133.4688413061341 M1.8488760087639093 132.0938190426677 C1.3303157786931845 86.7788061414845, -1.270508875409141 40.465889416448746, -1.278121879324317 -0.22123686410486698 M0.960308532230556 132.05315930116916 C-0.27525611798279015 87.95436755055559, 1.1269785853195933 44.834767580032334, 0.4235128862783313 -0.609466458670795" stroke="#000000" stroke-width="1" fill="none"></path></g><g transform="translate(603.5 528.3182773109243) rotate(0 149.07999999999993 15.659663865546179)"><text x="0" y="22" font-family="Virgil" font-size="25.05546218487392px" fill="#000000" text-anchor="start" style="white-space: pre;" direction="ltr">react-canvas-annotation</text></g><g transform="translate(253.5 107.13760504201673) rotate(0 395.25 288.5)"><path d="M0.30043941363692284 0.11093566790223122 C265.0295696340967 1.0018868646305057, 530.4562180125155 1.599225612608716, 790.9870330177248 0.7707985915243626 M0.2703208226710558 -0.1435688454657793 C160.14706914830023 0.8993730803895741, 320.11246684221555 0.5602253815103321, 790.8962769884616 -0.11348996944725515 M790.7763589225709 -0.6784485779702664 C788.3596682371012 190.64005124988034, 788.2904724182002 382.5187111424282, 790.8567841611803 576.9282443322242 M790.6840832132846 0.2807884614914656 C789.0613457119205 193.12674608444794, 788.8437370097377 387.18793007154017, 790.59643044658 577.3940868657082 M790.905930622667 576.4770867623389 C599.4330341271591 580.2629973272998, 407.699403836485 579.6715772251804, -0.19620410576462746 576.431610635668 M790.2611135024578 576.9098771374672 C545.8213002589066 576.3789692791236, 301.382465485204 576.5205901654493, -0.2197258334606886 577.014293019101 M-0.03782302513718605 576.8447536028922 C-0.002593730878084677 354.8423451158218, -0.7686996449939905 133.04037989657368, -0.6340655721724033 -0.5792343340814113 M0.3580645222216845 577.1325521629303 C-1.971646793905646 419.83224481353534, -2.2801192961372436 262.76256910171355, 0.22828910537064076 -0.2565946538001299" stroke="#000000" stroke-width="1" fill="none"></path></g><g transform="translate(266.5 119.63760504201673) rotate(0 55 12.5)"><text x="0" y="18" font-family="Virgil" font-size="20px" fill="#000000" text-anchor="start" style="white-space: pre;" direction="ltr">Dashboard</text></g><g transform="translate(340.5 404.63760504201673) rotate(0 91 12.5)"><text x="0" y="18" font-family="Virgil" font-size="20px" fill="#000000" text-anchor="start" style="white-space: pre;" direction="ltr">State management</text></g><g transform="translate(654.5 569.4364556167293) rotate(0 106.5 15.339506172839492)"><text x="0" y="22" font-family="Virgil" font-size="24.543209876543195px" fill="#000000" text-anchor="start" style="white-space: pre;" direction="ltr">annotation library</text></g><g transform="translate(731.5 615.6376050420167) rotate(0 85 12.5)"><text x="85" y="18" font-family="Virgil" font-size="20px" fill="#343a40" text-anchor="middle" style="white-space: pre;" direction="ltr">implemented by us</text></g><g><g transform="translate(427.5 336.13760504201673) rotate(0 0.2708267729543081 -43.207707131281495)"><path d="M-0.6200028654187918 -0.15831663049757472 C-0.6777849153925976 -14.455650916074712, 0.22122834560771787 -71.78652916985253, 0.49792925156652934 -86.25709763206541 M1.255356900896877 -1.2870368068479001 C0.9217179858746627 -15.361103844152144, -0.5537456419008474 -70.7058801958027, -0.7137033549882472 -84.85464863767848" stroke="#343a40" stroke-width="1" fill="none"></path></g></g><g><g transform="translate(426.5 252.13760504201673) rotate(0 96.7242492314428 -2.865349024161702)"><path d="M-0.29821886457502844 -0.12281190119683738 C32.090589071934424 -1.1415753201891978, 161.50904884102445 -4.936728242660562, 193.74671732746066 -5.607886147126555 M1.7460775021836161 -1.2328920946642756 C34.00598831654837 -2.144638560426732, 160.36268061360965 -3.58743378183494, 192.6656984607503 -4.389601123146713" stroke="#343a40" stroke-width="1" fill="none"></path></g><g transform="translate(426.5 252.13760504201673) rotate(0 96.7242492314428 -2.865349024161702)"><path d="M164.45386663680978 5.939996340651097 C170.63434730052535 2.277695611697622, 180.09871590780492 0.31014552222357317, 191.5869121677056 -2.4827526831999425 M164.55507799001492 5.513226906176689 C175.5606605880714 1.8011421362913937, 185.92214592884253 -2.4869366889045637, 193.08921470910312 -4.836776883900166" stroke="#343a40" stroke-width="1" fill="none"></path></g><g transform="translate(426.5 252.13760504201673) rotate(0 96.7242492314428 -2.865349024161702)"><path d="M164.09521171504693 -14.578077863156013 C170.45206528304183 -13.086253751776749, 180.00651215736067 -9.90057031478091, 191.5869121677056 -2.4827526831999425 M164.19642306825207 -15.004847297630421 C175.28561434032193 -11.043064102332067, 185.78125535564436 -7.656311443893639, 193.08921470910312 -4.836776883900166" stroke="#343a40" stroke-width="1" fill="none"></path></g></g><g><g transform="translate(750.5 515.1376050420167) rotate(0 -1.205523218233111 -115.5210246914998)"><path d="M-0.8273272577673196 0.08594031371176247 C-1.3369665001208508 -38.44326066728682, -3.0763812161360797 -192.66435077320787, -3.350233639031603 -231.12798969671132 M0.939187202565372 -0.9145449669286609 C0.8042887908717073 -39.24910916551948, -0.5334866150219854 -190.96906039476397, -1.255215432904615 -229.62416174087676" stroke="#343a40" stroke-width="1" fill="none"></path></g><g transform="translate(750.5 515.1376050420167) rotate(0 -1.205523218233111 -115.5210246914998)"><path d="M9.512849562218637 -203.52715621460095 C6.32335943390169 -209.8671327217359, 4.114960986224855 -218.71905300016593, -1.8955299914255281 -230.24821610387417 M9.953842766000182 -202.34421647563443 C5.8719767769657505 -209.7596714666254, 2.4548502896874433 -218.2612754964942, -0.6193111161142131 -229.88688595138493" stroke="#343a40" stroke-width="1" fill="none"></path></g><g transform="translate(750.5 515.1376050420167) rotate(0 -1.205523218233111 -115.5210246914998)"><path d="M-11.006638078401128 -203.2613943808243 C-8.540374895158283 -209.5331543196035, -5.092915462433267 -218.4583274583486, -1.8955299914255281 -230.24821610387417 M-10.565644874619583 -202.07845464185777 C-8.210327789941196 -209.56559700140392, -5.192703259676735 -218.15054186610584, -0.6193111161142131 -229.88688595138493" stroke="#343a40" stroke-width="1" fill="none"></path></g></g><g transform="translate(10 298.63760504201673) rotate(0 87.5 75)"><path d="M1.2215985152870417 -0.2180685792118311 C49.860296408180155 -2.0333993185777217, 97.84775872062893 0.5566059004049748, 174.4923171494156 1.6411194410175085 M0.04004244040697813 0.8886408852413297 C38.75387335056439 -0.2959426005836576, 78.46420522965491 0.45540288486517966, 175.32272959779948 0.4804153786972165 M173.26453919149935 -0.428687134757638 C172.6379189058207 48.76986005436629, 172.76327718934044 94.90074023604393, 174.73991824127734 151.59342469833788 M175.40946174692363 -0.8720142496749759 C174.46948916791007 46.957902058959, 174.6662709522061 92.33851283323018, 175.96626828145236 150.73621398676184 M174.30082131363451 151.9456304516643 C127.78382010152563 150.03329780814235, 78.4428538167849 151.98075923440044, -1.1592149045318365 149.5373433437198 M174.44052026700228 149.35380846727637 C130.0587577703409 150.5168955826666, 85.28622817620635 149.1816455328371, -0.3093948857858777 149.1994682298973 M0.059021541848778725 151.0288465823978 C0.5053192102350292 110.09021289739755, 2.1993077122606337 74.64531357213852, -1.1073650028556585 -1.616052845492959 M0.5282070143148303 149.08078799117354 C0.25298313284292817 108.84491183795032, -0.08342104172334075 66.93078727927058, -0.6844662027433515 0.13192737568169832" stroke="#a61e4d" stroke-width="1" fill="none"></path></g><g transform="translate(16.5 211.88760504201673) rotate(0 84 38)"><text x="84" y="27" font-family="Virgil" font-size="30.00000000000001px" fill="#343a40" text-anchor="middle" style="white-space: pre;" direction="ltr">Annotation</text><text x="84" y="65" font-family="Virgil" font-size="30.00000000000001px" fill="#343a40" text-anchor="middle" style="white-space: pre;" direction="ltr">Suggestions</text></g><g><g transform="translate(186.98799234554173 375.19112204742305) rotate(0 67.07657964678481 13.593921099882607)"><path d="M-0.25600382722914217 0.03925582207739353 C22.2155822587572 4.3771428523895795, 111.67580144582313 22.641243246911788, 134.40916312079872 27.14858637768784" stroke="#a61e4d" stroke-width="1.5" fill="none" stroke-dasharray="12 8"></path></g><g transform="translate(186.98799234554173 375.19112204742305) rotate(0 67.07657964678481 13.593921099882607)"><path d="M104.81272913329201 29.836450958219388 C110.7653693458292 31.601273348145433, 118.51610252595577 31.188384775393466, 134.6749029994383 26.678268188797027" stroke="#a61e4d" stroke-width="1.5" fill="none"></path></g><g transform="translate(186.98799234554173 375.19112204742305) rotate(0 67.07657964678481 13.593921099882607)"><path d="M108.86517216347309 9.719351070984741 C113.93200584770452 16.80596714957378, 120.60896096763211 21.723517606529427, 134.6749029994383 26.678268188797027" stroke="#a61e4d" stroke-width="1.5" fill="none"></path></g></g><g transform="translate(19.25 314.88760504201673) rotate(0 77.40000000000003 60)"><text x="0" y="20.99999999999998" font-family="Virgil" font-size="23.85114342094111px" fill="#000000" text-anchor="start" style="white-space: pre;" direction="ltr">JSON file {</text><text x="0" y="50.999999999999986" font-family="Virgil" font-size="23.85114342094111px" fill="#000000" text-anchor="start" style="white-space: pre;" direction="ltr"> Rect: [...],</text><text x="0" y="81" font-family="Virgil" font-size="23.85114342094111px" fill="#000000" text-anchor="start" style="white-space: pre;" direction="ltr"> Polygon: [...]</text><text x="0" y="111" font-family="Virgil" font-size="23.85114342094111px" fill="#000000" text-anchor="start" style="white-space: pre;" direction="ltr">}</text></g><g><g transform="translate(877.5 232.38760504201673) rotate(0 145.07035761717702 8.5325387543067)"><path d="M0.7241797741502523 0.8818780068308116 C48.857970452867434 3.525063697931663, 241.2672582549974 13.589893647717913, 289.4165354602038 16.18319950178263" stroke="#000000" stroke-width="1.5" fill="none" stroke-dasharray="12 8"></path></g><g transform="translate(877.5 232.38760504201673) rotate(0 145.07035761717702 8.5325387543067)"><path d="M262.1918990543412 25.492474023582837 C270.7188233156214 22.58425333808923, 281.22570894882307 17.362697026120692, 288.2993226487189 15.203576312586641" stroke="#000000" stroke-width="1.5" fill="none"></path></g><g transform="translate(877.5 232.38760504201673) rotate(0 145.07035761717702 8.5325387543067)"><path d="M263.27826875411955 5.000041194334809 C271.4790592197489 9.294279647958039, 281.60446691253367 11.268626417074426, 288.2993226487189 15.203576312586641" stroke="#000000" stroke-width="1.5" fill="none"></path></g></g><g transform="translate(1172.5 163.63760504201673) rotate(0 102.5 101.875)"><path d="M0 0 C65.39844223996624 0, 130.7968844799325 0, 205 0 M0 0 C60.622332310769714 0, 121.24466462153943 0, 205 0 M205 0 C205 59.73833214130718, 205 119.47666428261437, 205 203.75 M205 0 C205 72.73933713312726, 205 145.47867426625453, 205 203.75 M205 203.75 C132.8571372614242 203.75, 60.71427452284843 203.75, 0 203.75 M205 203.75 C126.13980507245287 203.75, 47.279610144905746 203.75, 0 203.75 M0 203.75 C0 130.0867205596296, 0 56.42344111925922, 0 0 M0 203.75 C0 151.26943444286007, 0 98.78886888572013, 0 0" stroke="#000000" stroke-width="1" fill="none"></path></g><g transform="translate(1111 91.13760504201673) rotate(0 164 35)"><text x="164" y="25" font-family="Virgil" font-size="28px" fill="#000000" text-anchor="middle" style="white-space: pre;" direction="ltr">Output Annotation</text><text x="164" y="60" font-family="Virgil" font-size="28px" fill="#000000" text-anchor="middle" style="white-space: pre;" direction="ltr">Labels and Coordinates</text></g><g transform="translate(1185.025 194.88760504201673) rotate(0 88.6875 68.75)"><text x="0" y="22.875" font-family="Virgil" font-size="27.04228745648968px" fill="#000000" text-anchor="start" style="white-space: pre;" direction="ltr">JSON file {</text><text x="0" y="57.25" font-family="Virgil" font-size="27.04228745648968px" fill="#000000" text-anchor="start" style="white-space: pre;" direction="ltr"> Rect: [...],</text><text x="0" y="91.625" font-family="Virgil" font-size="27.04228745648968px" fill="#000000" text-anchor="start" style="white-space: pre;" direction="ltr"> Polygon: [...]</text><text x="0" y="126" font-family="Virgil" font-size="27.04228745648968px" fill="#000000" text-anchor="start" style="white-space: pre;" direction="ltr">}</text></g></svg>