<svg width="397" height="118" viewBox="0 0 397 118" fill="none" xmlns="http://www.w3.org/2000/svg">
<rect x="2" y="3" width="133" height="113" fill="url(#paint0_linear)" stroke="#34354E" stroke-width="2"/>
<rect x="132" width="5" height="5" fill="#34354E"/>
<rect y="113" width="5" height="5" fill="#34354E"/>
<path d="M11.8818 88L12.9618 29.68H20.9538L31.2498 76.984L41.6178 29.68H49.5378L50.6178 88H44.0658L43.4178 45.664L33.5538 88H28.9458L19.1538 45.664L18.5058 88H11.8818ZM63.1571 88V29.68H85.7651V35.728H71.2931V55.024H83.0291V60.784H71.2931V82.168H85.9091V88H63.1571ZM96.0774 88V29.68H108.749C113.069 29.68 116.477 30.352 118.973 31.696C121.517 32.992 123.317 34.96 124.373 37.6C125.477 40.24 126.029 43.528 126.029 47.464V68.92C126.029 73.048 125.477 76.528 124.373 79.36C123.317 82.192 121.565 84.352 119.117 85.84C116.717 87.28 113.477 88 109.397 88H96.0774ZM104.213 82.168H108.821C111.797 82.168 113.909 81.592 115.157 80.44C116.405 79.288 117.149 77.608 117.389 75.4C117.677 73.192 117.821 70.528 117.821 67.408V48.472C117.821 45.448 117.629 43 117.245 41.128C116.861 39.256 116.021 37.888 114.725 37.024C113.429 36.16 111.389 35.728 108.605 35.728H104.213V82.168Z" fill="url(#paint1_linear)"/>
<path d="M141.968 88V29.68H149.96V88H141.968ZM169.403 88V35.728H159.539V29.68H187.115V35.728H177.539V88H169.403ZM193.029 88L205.413 29.68H213.261L225.717 88H218.013L215.349 73.312H203.469L200.661 88H193.029ZM204.549 67.48H214.269L209.373 41.2L204.549 67.48ZM239.322 88V35.728H229.458V29.68H257.034V35.728H247.458V88H239.322ZM272.664 88V35.728H262.8V29.68H290.376V35.728H280.8V88H272.664ZM300.031 88V29.68H308.023V88H300.031ZM335.962 88.648C332.026 88.648 328.882 87.88 326.53 86.344C324.178 84.808 322.498 82.624 321.49 79.792C320.482 76.912 319.978 73.552 319.978 69.712V47.608C319.978 43.768 320.482 40.48 321.49 37.744C322.546 34.96 324.226 32.848 326.53 31.408C328.882 29.92 332.026 29.176 335.962 29.176C339.898 29.176 343.018 29.92 345.322 31.408C347.626 32.896 349.282 35.008 350.29 37.744C351.346 40.48 351.874 43.768 351.874 47.608V69.784C351.874 73.576 351.346 76.888 350.29 79.72C349.282 82.552 347.626 84.76 345.322 86.344C343.018 87.88 339.898 88.648 335.962 88.648ZM335.962 82.24C338.122 82.24 339.754 81.808 340.858 80.944C341.962 80.032 342.706 78.784 343.09 77.2C343.474 75.568 343.666 73.672 343.666 71.512V45.952C343.666 43.792 343.474 41.944 343.09 40.408C342.706 38.824 341.962 37.624 340.858 36.808C339.754 35.944 338.122 35.512 335.962 35.512C333.802 35.512 332.146 35.944 330.994 36.808C329.89 37.624 329.146 38.824 328.762 40.408C328.378 41.944 328.186 43.792 328.186 45.952V71.512C328.186 73.672 328.378 75.568 328.762 77.2C329.146 78.784 329.89 80.032 330.994 80.944C332.146 81.808 333.802 82.24 335.962 82.24ZM363.47 88V29.68H369.014L385.574 68.416V29.68H392.342V88H387.158L370.382 48.184V88H363.47Z" fill="url(#paint2_linear)"/>
<defs>
<linearGradient id="paint0_linear" x1="1" y1="59.5" x2="136" y2="59.5" gradientUnits="userSpaceOnUse">
<stop stop-color="#A1C4FD"/>
<stop offset="1" stop-color="#C2E9FB"/>
</linearGradient>
<linearGradient id="paint1_linear" x1="1" y1="59.5" x2="136" y2="59.5" gradientUnits="userSpaceOnUse">
<stop stop-color="#434343"/>
<stop offset="1"/>
</linearGradient>
<linearGradient id="paint2_linear" x1="137" y1="55.5" x2="397" y2="55.5" gradientUnits="userSpaceOnUse">
<stop/>
<stop offset="1" stop-color="#434343"/>
</linearGradient>
</defs>
</svg>
