<svg width="137" height="118" viewBox="0 0 137 118" fill="none" xmlns="http://www.w3.org/2000/svg">
<rect x="2" y="3" width="133" height="113" fill="url(#paint0_linear)" stroke="#34354E" stroke-width="2"/>
<rect x="132" width="5" height="5" fill="#34354E"/>
<rect y="113" width="5" height="5" fill="#34354E"/>
<path d="M11.8818 88L12.9618 29.68H20.9538L31.2498 76.984L41.6178 29.68H49.5378L50.6178 88H44.0658L43.4178 45.664L33.5538 88H28.9458L19.1538 45.664L18.5058 88H11.8818ZM63.1571 88V29.68H85.7651V35.728H71.2931V55.024H83.0291V60.784H71.2931V82.168H85.9091V88H63.1571ZM96.0774 88V29.68H108.749C113.069 29.68 116.477 30.352 118.973 31.696C121.517 32.992 123.317 34.96 124.373 37.6C125.477 40.24 126.029 43.528 126.029 47.464V68.92C126.029 73.048 125.477 76.528 124.373 79.36C123.317 82.192 121.565 84.352 119.117 85.84C116.717 87.28 113.477 88 109.397 88H96.0774ZM104.213 82.168H108.821C111.797 82.168 113.909 81.592 115.157 80.44C116.405 79.288 117.149 77.608 117.389 75.4C117.677 73.192 117.821 70.528 117.821 67.408V48.472C117.821 45.448 117.629 43 117.245 41.128C116.861 39.256 116.021 37.888 114.725 37.024C113.429 36.16 111.389 35.728 108.605 35.728H104.213V82.168Z" fill="url(#paint1_linear)"/>
<defs>
<linearGradient id="paint0_linear" x1="1" y1="59.5" x2="136" y2="59.5" gradientUnits="userSpaceOnUse">
<stop stop-color="#A1C4FD"/>
<stop offset="1" stop-color="#C2E9FB"/>
</linearGradient>
<linearGradient id="paint1_linear" x1="1" y1="59.5" x2="136" y2="59.5" gradientUnits="userSpaceOnUse">
<stop stop-color="#434343"/>
<stop offset="1"/>
</linearGradient>
</defs>
</svg>
